<mxfile host="Electron" modified="2024-02-08T08:00:02.256Z" agent="Mozilla/5.0 (Windows NT 10.0; Win64; x64) AppleWebKit/537.36 (KHTML, like Gecko) draw.io/22.1.11 Chrome/114.0.5735.289 Electron/25.9.8 Safari/537.36" etag="lYY7tuFZXBmeyiyiGFmd" version="22.1.11" type="device">
  <diagram name="페이지-1" id="Z03owWFf74ZnsrrdA6-R">
    <mxGraphModel dx="500" dy="307" grid="1" gridSize="10" guides="1" tooltips="1" connect="1" arrows="1" fold="1" page="1" pageScale="1" pageWidth="827" pageHeight="1169" math="0" shadow="0">
      <root>
        <mxCell id="0" />
        <mxCell id="1" parent="0" />
        <mxCell id="ztM2uDvn-El1E1oaOakQ-1" value="" style="rounded=0;whiteSpace=wrap;html=1;" vertex="1" parent="1">
          <mxGeometry x="40" y="40" width="40" height="280" as="geometry" />
        </mxCell>
        <mxCell id="ztM2uDvn-El1E1oaOakQ-2" value="" style="rounded=0;whiteSpace=wrap;html=1;" vertex="1" parent="1">
          <mxGeometry x="80" y="80" width="40" height="240" as="geometry" />
        </mxCell>
        <mxCell id="ztM2uDvn-El1E1oaOakQ-3" value="" style="rounded=0;whiteSpace=wrap;html=1;" vertex="1" parent="1">
          <mxGeometry x="120" y="80" width="40" height="240" as="geometry" />
        </mxCell>
        <mxCell id="ztM2uDvn-El1E1oaOakQ-4" value="" style="rounded=0;whiteSpace=wrap;html=1;" vertex="1" parent="1">
          <mxGeometry x="160" y="90" width="40" height="230" as="geometry" />
        </mxCell>
        <mxCell id="ztM2uDvn-El1E1oaOakQ-5" value="" style="rounded=0;whiteSpace=wrap;html=1;" vertex="1" parent="1">
          <mxGeometry x="200" y="160" width="40" height="160" as="geometry" />
        </mxCell>
        <mxCell id="ztM2uDvn-El1E1oaOakQ-6" value="" style="rounded=0;whiteSpace=wrap;html=1;" vertex="1" parent="1">
          <mxGeometry x="240" y="240" width="40" height="80" as="geometry" />
        </mxCell>
        <mxCell id="ztM2uDvn-El1E1oaOakQ-7" value="" style="rounded=0;whiteSpace=wrap;html=1;" vertex="1" parent="1">
          <mxGeometry x="280" y="260" width="40" height="60" as="geometry" />
        </mxCell>
        <mxCell id="ztM2uDvn-El1E1oaOakQ-8" value="" style="rounded=0;whiteSpace=wrap;html=1;" vertex="1" parent="1">
          <mxGeometry x="320" y="280" width="40" height="40" as="geometry" />
        </mxCell>
        <mxCell id="ztM2uDvn-El1E1oaOakQ-9" value="" style="rounded=0;whiteSpace=wrap;html=1;" vertex="1" parent="1">
          <mxGeometry x="360" y="280" width="40" height="40" as="geometry" />
        </mxCell>
        <mxCell id="ztM2uDvn-El1E1oaOakQ-10" value="" style="rounded=0;whiteSpace=wrap;html=1;" vertex="1" parent="1">
          <mxGeometry x="400" y="280" width="40" height="40" as="geometry" />
        </mxCell>
        <mxCell id="ztM2uDvn-El1E1oaOakQ-11" value="" style="endArrow=none;html=1;rounded=0;" edge="1" parent="1">
          <mxGeometry width="50" height="50" relative="1" as="geometry">
            <mxPoint x="40" y="340" as="sourcePoint" />
            <mxPoint x="200" y="340" as="targetPoint" />
          </mxGeometry>
        </mxCell>
        <mxCell id="ztM2uDvn-El1E1oaOakQ-12" value="" style="endArrow=none;html=1;rounded=0;" edge="1" parent="1">
          <mxGeometry width="50" height="50" relative="1" as="geometry">
            <mxPoint x="40" y="350" as="sourcePoint" />
            <mxPoint x="40" y="330" as="targetPoint" />
          </mxGeometry>
        </mxCell>
        <mxCell id="ztM2uDvn-El1E1oaOakQ-15" value="a" style="edgeLabel;html=1;align=center;verticalAlign=middle;resizable=0;points=[];" vertex="1" connectable="0" parent="ztM2uDvn-El1E1oaOakQ-12">
          <mxGeometry x="-1.5" relative="1" as="geometry">
            <mxPoint as="offset" />
          </mxGeometry>
        </mxCell>
        <mxCell id="ztM2uDvn-El1E1oaOakQ-13" value="" style="endArrow=none;html=1;rounded=0;" edge="1" parent="1">
          <mxGeometry width="50" height="50" relative="1" as="geometry">
            <mxPoint x="199.72" y="350" as="sourcePoint" />
            <mxPoint x="199.72" y="330" as="targetPoint" />
          </mxGeometry>
        </mxCell>
        <mxCell id="ztM2uDvn-El1E1oaOakQ-16" value="b" style="edgeLabel;html=1;align=center;verticalAlign=middle;resizable=0;points=[];" vertex="1" connectable="0" parent="ztM2uDvn-El1E1oaOakQ-13">
          <mxGeometry x="-1.5" relative="1" as="geometry">
            <mxPoint as="offset" />
          </mxGeometry>
        </mxCell>
      </root>
    </mxGraphModel>
  </diagram>
</mxfile>
